<?xml version="1.0" encoding="utf-8"?>
<!-- created with bpmn-js / http://bpmn.io -->
<!DOCTYPE svg PUBLIC "-//W3C//DTD SVG 1.1//EN" "http://www.w3.org/Graphics/SVG/1.1/DTD/svg11.dtd">
<svg xmlns="http://www.w3.org/2000/svg" xmlns:xlink="http://www.w3.org/1999/xlink" width="1462" height="262" viewBox="-76 54 1462 262" version="1.1"><defs><marker id="sequenceflow-end-white-black-841q5iqqdllhoi6tzj6tsx1ee" viewBox="0 0 20 20" refX="11" refY="10" markerWidth="10" markerHeight="10" orient="auto"><path style="fill: black; stroke: black; stroke-dasharray: 10000px, 1px; stroke-linecap: round; stroke-width: 1px;" d="M 1 5 L 11 10 L 1 15 Z"/></marker></defs><g class="djs-group"><g class="djs-element djs-shape djs-label-hidden" style="display: block;" transform="matrix(1, 0, 0, 1, -70, 60)" data-element-id="Participant_0up8dln"><g class="djs-visual"><rect style="fill: white; fill-opacity: 0.95; stroke: black; stroke-width: 2px;" x="0" y="0" width="1450" height="250" rx="0" ry="0"/><polyline style="fill: none; stroke: black; stroke-width: 2px;" points="30,0 30,250"/><text class="djs-label" style="font-family: Arial,sans-serif; font-size: 12px; font-weight: normal; fill: black;" transform="matrix(0, -1, 1, 0, 0, 250)" lineHeight="1.2"><tspan x="79.99" y="18.6">Excess Baggage</tspan></text></g><rect class="djs-hit" style="fill: none; stroke: white; stroke-opacity: 0; stroke-width: 15px;" x="0" y="0" width="1450" height="250"/><rect class="djs-outline" style="fill: none;" x="-6" y="-6" width="1462" height="262"/></g><g class="djs-children"><g class="djs-group"><g class="djs-element djs-connection" style="display: block;" data-element-id="SequenceFlow_1ja2k0i"><g class="djs-visual"><path style="fill: none; marker-end: url('#sequenceflow-end-white-black-841q5iqqdllhoi6tzj6tsx1ee'); stroke: black; stroke-linejoin: round; stroke-width: 2px;" d="m 16 180 L 70 180"/></g><polyline class="djs-hit" style="fill: none; stroke: white; stroke-opacity: 0; stroke-width: 15px;" points="16,180 70,180"/><rect class="djs-outline" style="fill: none;" x="10" y="174" width="66" height="12"/></g></g><g class="djs-group"><g class="djs-element djs-connection" style="display: block;" data-element-id="SequenceFlow_0dc9ap9"><g class="djs-visual"><path style="fill: none; marker-end: url('#sequenceflow-end-white-black-841q5iqqdllhoi6tzj6tsx1ee'); stroke: black; stroke-linejoin: round; stroke-width: 2px;" d="m 170 180 L 230 180"/></g><polyline class="djs-hit" style="fill: none; stroke: white; stroke-opacity: 0; stroke-width: 15px;" points="170,180 230,180"/><rect class="djs-outline" style="fill: none;" x="164" y="174" width="72" height="12"/></g></g><g class="djs-group"><g class="djs-element djs-connection" style="display: block;" data-element-id="SequenceFlow_1tlzw5u"><g class="djs-visual"><path style="fill: none; marker-end: url('#sequenceflow-end-white-black-841q5iqqdllhoi6tzj6tsx1ee'); stroke: black; stroke-linejoin: round; stroke-width: 2px;" d="m 330 180 L 390 180"/></g><polyline class="djs-hit" style="fill: none; stroke: white; stroke-opacity: 0; stroke-width: 15px;" points="330,180 390,180"/><rect class="djs-outline" style="fill: none;" x="324" y="174" width="72" height="12"/></g></g><g class="djs-group"><g class="djs-element djs-connection" style="display: block;" data-element-id="SequenceFlow_1lae32m"><g class="djs-visual"><path style="fill: none; marker-end: url('#sequenceflow-end-white-black-841q5iqqdllhoi6tzj6tsx1ee'); stroke: black; stroke-linejoin: round; stroke-width: 2px;" d="m 490 180 L 555 180"/></g><polyline class="djs-hit" style="fill: none; stroke: white; stroke-opacity: 0; stroke-width: 15px;" points="490,180 555,180"/><rect class="djs-outline" style="fill: none;" x="484" y="174" width="77" height="12"/></g></g><g class="djs-group"><g class="djs-element djs-connection" style="display: block;" data-element-id="SequenceFlow_1pq7d8n"><g class="djs-visual"><path style="fill: none; marker-end: url('#sequenceflow-end-white-black-841q5iqqdllhoi6tzj6tsx1ee'); stroke: black; stroke-linejoin: round; stroke-width: 2px;" d="m 580 155 L 580 120 L 670 120"/></g><polyline class="djs-hit" style="fill: none; stroke: white; stroke-opacity: 0; stroke-width: 15px;" points="580,155 580,120 670,120"/><rect class="djs-outline" style="fill: none;" x="574" y="114" width="102" height="47"/></g></g><g class="djs-group"><g class="djs-element djs-connection" style="display: block;" data-element-id="SequenceFlow_0qlmfv6"><g class="djs-visual"><path style="fill: none; marker-end: url('#sequenceflow-end-white-black-841q5iqqdllhoi6tzj6tsx1ee'); stroke: black; stroke-linejoin: round; stroke-width: 2px;" d="m 580 205 L 580 240 L 670 240"/></g><polyline class="djs-hit" style="fill: none; stroke: white; stroke-opacity: 0; stroke-width: 15px;" points="580,205 580,240 670,240"/><rect class="djs-outline" style="fill: none;" x="574" y="199" width="102" height="47"/></g></g><g class="djs-group"><g class="djs-element djs-connection" style="display: block;" data-element-id="SequenceFlow_0ttzmot"><g class="djs-visual"><path style="fill: none; marker-end: url('#sequenceflow-end-white-black-841q5iqqdllhoi6tzj6tsx1ee'); stroke: black; stroke-linejoin: round; stroke-width: 2px;" d="m 770 120 L 890 120 L 890 140"/></g><polyline class="djs-hit" style="fill: none; stroke: white; stroke-opacity: 0; stroke-width: 15px;" points="770,120 890,120 890,140"/><rect class="djs-outline" style="fill: none;" x="764" y="114" width="132" height="32"/></g></g><g class="djs-group"><g class="djs-element djs-connection" style="display: block;" data-element-id="SequenceFlow_1r97tdk"><g class="djs-visual"><path style="fill: none; marker-end: url('#sequenceflow-end-white-black-841q5iqqdllhoi6tzj6tsx1ee'); stroke: black; stroke-linejoin: round; stroke-width: 2px;" d="m 770 240 L 890 240 L 890 220"/></g><polyline class="djs-hit" style="fill: none; stroke: white; stroke-opacity: 0; stroke-width: 15px;" points="770,240 890,240 890,220"/><rect class="djs-outline" style="fill: none;" x="764" y="214" width="132" height="32"/></g></g><g class="djs-group"><g class="djs-element djs-connection" style="display: block;" data-element-id="SequenceFlow_08mm3x2"><g class="djs-visual"><path style="fill: none; marker-end: url('#sequenceflow-end-white-black-841q5iqqdllhoi6tzj6tsx1ee'); stroke: black; stroke-linejoin: round; stroke-width: 2px;" d="m 940 180 L 1010 180"/></g><polyline class="djs-hit" style="fill: none; stroke: white; stroke-opacity: 0; stroke-width: 15px;" points="940,180 1010,180"/><rect class="djs-outline" style="fill: none;" x="934" y="174" width="82" height="12"/></g></g><g class="djs-group"><g class="djs-element djs-connection" style="display: block;" data-element-id="SequenceFlow_0dk5f2r"><g class="djs-visual"><path style="fill: none; marker-end: url('#sequenceflow-end-white-black-841q5iqqdllhoi6tzj6tsx1ee'); stroke: black; stroke-linejoin: round; stroke-width: 2px;" d="m 1110 180 L 1180 180"/></g><polyline class="djs-hit" style="fill: none; stroke: white; stroke-opacity: 0; stroke-width: 15px;" points="1110,180 1180,180"/><rect class="djs-outline" style="fill: none;" x="1104" y="174" width="82" height="12"/></g></g><g class="djs-group"><g class="djs-element djs-shape" style="display: block;" transform="matrix(1, 0, 0, 1, 670, 80)" data-element-id="Task_1t2lj4a"><g class="djs-visual"><rect style="fill: white; fill-opacity: 0.95; stroke: black; stroke-width: 2px;" x="0" y="0" width="100" height="80" rx="10" ry="10"/><text class="djs-label" style="font-family: Arial,sans-serif; font-size: 12px; font-weight: normal; fill: black;" lineHeight="1.2"><tspan x="19.99" y="36.4">Scheudule </tspan><tspan x="32.66" y="50.8">pickup</tspan></text></g><rect class="djs-hit" style="fill: none; stroke: white; stroke-opacity: 0; stroke-width: 15px;" x="0" y="0" width="100" height="80"/><rect class="djs-outline" style="fill: none;" x="-6" y="-6" width="112" height="92"/></g></g><g class="djs-group"><g class="djs-element djs-shape" style="display: block;" transform="matrix(1, 0, 0, 1, -20, 162)" data-element-id="StartEvent_1oo6uk2"><g class="djs-visual"><circle style="fill: white; fill-opacity: 0.95; stroke: black; stroke-width: 2px;" cx="18" cy="18" r="18"/></g><rect class="djs-hit" style="fill: none; stroke: white; stroke-opacity: 0; stroke-width: 15px;" x="0" y="0" width="36" height="36"/><rect class="djs-outline" style="fill: none;" x="-6" y="-6" width="48" height="48"/></g></g><g class="djs-group"><g class="djs-element djs-shape" style="display: block;" transform="matrix(1, 0, 0, 1, 70, 140)" data-element-id="Task_03x0f7t"><g class="djs-visual"><rect style="fill: white; fill-opacity: 0.95; stroke: black; stroke-width: 2px;" x="0" y="0" width="100" height="80" rx="10" ry="10"/><text class="djs-label" style="font-family: Arial,sans-serif; font-size: 12px; font-weight: normal; fill: black;" lineHeight="1.2"><tspan x="17.335" y="43.6">Get a Quote</tspan></text></g><rect class="djs-hit" style="fill: none; stroke: white; stroke-opacity: 0; stroke-width: 15px;" x="0" y="0" width="100" height="80"/><rect class="djs-outline" style="fill: none;" x="-6" y="-6" width="112" height="92"/></g></g><g class="djs-group"><g class="djs-element djs-shape" style="display: block;" transform="matrix(1, 0, 0, 1, 230, 140)" data-element-id="Task_0iu48c4"><g class="djs-visual"><rect style="fill: white; fill-opacity: 0.95; stroke: black; stroke-width: 2px;" x="0" y="0" width="100" height="80" rx="10" ry="10"/><text class="djs-label" style="font-family: Arial,sans-serif; font-size: 12px; font-weight: normal; fill: black;" lineHeight="1.2"><tspan x="18.655" y="43.6">Book online</tspan></text></g><rect class="djs-hit" style="fill: none; stroke: white; stroke-opacity: 0; stroke-width: 15px;" x="0" y="0" width="100" height="80"/><rect class="djs-outline" style="fill: none;" x="-6" y="-6" width="112" height="92"/></g></g><g class="djs-group"><g class="djs-element djs-shape" style="display: block;" transform="matrix(1, 0, 0, 1, 390, 140)" data-element-id="Task_0kql8a4"><g class="djs-visual"><rect style="fill: white; fill-opacity: 0.95; stroke: black; stroke-width: 2px;" x="0" y="0" width="100" height="80" rx="10" ry="10"/><text class="djs-label" style="font-family: Arial,sans-serif; font-size: 12px; font-weight: normal; fill: black;" lineHeight="1.2"><tspan x="13.66" y="36.4">Prepare your </tspan><tspan x="7.66" y="50.8">personal effects</tspan></text></g><rect class="djs-hit" style="fill: none; stroke: white; stroke-opacity: 0; stroke-width: 15px;" x="0" y="0" width="100" height="80"/><rect class="djs-outline" style="fill: none;" x="-6" y="-6" width="112" height="92"/></g></g><g class="djs-group"><g class="djs-element djs-shape" style="display: block;" transform="matrix(1, 0, 0, 1, 555, 155)" data-element-id="ExclusiveGateway_1t3m3vo"><g class="djs-visual"><polygon style="fill: white; fill-opacity: 0.95; stroke: black; stroke-width: 2px;" points="25,0 50,25 25,50 0,25"/><path style="fill: black; stroke: black; stroke-width: 1px;" d="m 16 15 l 7.42857 9.71429 l -7.42857 9.71429 l 3.42857 0 l 5.71429 -7.46423 l 5.71429 7.46423 l 3.42857 0 l -7.42857 -9.71429 l 7.42857 -9.71429 l -3.42857 0 l -5.71429 7.46423 l -5.71429 -7.46423 l -3.42857 0 Z"/></g><rect class="djs-hit" style="fill: none; stroke: white; stroke-opacity: 0; stroke-width: 15px;" x="0" y="0" width="50" height="50"/><rect class="djs-outline" style="fill: none;" x="-6" y="-6" width="62" height="62"/></g></g><g class="djs-group"><g class="djs-element djs-shape" style="display: block;" transform="matrix(1, 0, 0, 1, 840, 140)" data-element-id="Task_12qmqio"><g class="djs-visual"><rect style="fill: white; fill-opacity: 0.95; stroke: black; stroke-width: 2px;" x="0" y="0" width="100" height="80" rx="10" ry="10"/><text class="djs-label" style="font-family: Arial,sans-serif; font-size: 12px; font-weight: normal; fill: black;" lineHeight="1.2"><tspan x="26.33" y="43.6">Payment</tspan></text></g><rect class="djs-hit" style="fill: none; stroke: white; stroke-opacity: 0; stroke-width: 15px;" x="0" y="0" width="100" height="80"/><rect class="djs-outline" style="fill: none;" x="-6" y="-6" width="112" height="92"/></g></g><g class="djs-group"><g class="djs-element djs-shape" style="display: block;" transform="matrix(1, 0, 0, 1, 1010, 140)" data-element-id="Task_09z0icc"><g class="djs-visual"><rect style="fill: white; fill-opacity: 0.95; stroke: black; stroke-width: 2px;" x="0" y="0" width="100" height="80" rx="10" ry="10"/><text class="djs-label" style="font-family: Arial,sans-serif; font-size: 12px; font-weight: normal; fill: black;" lineHeight="1.2"><tspan x="35" y="43.6">Track</tspan></text></g><rect class="djs-hit" style="fill: none; stroke: white; stroke-opacity: 0; stroke-width: 15px;" x="0" y="0" width="100" height="80"/><rect class="djs-outline" style="fill: none;" x="-6" y="-6" width="112" height="92"/></g></g><g class="djs-group"><g class="djs-element djs-shape" style="display: block;" transform="matrix(1, 0, 0, 1, 1180, 140)" data-element-id="Task_0nkg9wp"><g class="djs-visual"><rect style="fill: white; fill-opacity: 0.95; stroke: black; stroke-width: 2px;" x="0" y="0" width="100" height="80" rx="10" ry="10"/><text class="djs-label" style="font-family: Arial,sans-serif; font-size: 12px; font-weight: normal; fill: black;" lineHeight="1.2"><tspan x="28.325" y="43.6">Delivery</tspan></text></g><rect class="djs-hit" style="fill: none; stroke: white; stroke-opacity: 0; stroke-width: 15px;" x="0" y="0" width="100" height="80"/><rect class="djs-outline" style="fill: none;" x="-6" y="-6" width="112" height="92"/></g></g><g class="djs-group"><g class="djs-element djs-shape" style="display: block;" transform="matrix(1, 0, 0, 1, 670, 200)" data-element-id="Task_0t3wixe"><g class="djs-visual"><rect style="fill: white; fill-opacity: 0.95; stroke: black; stroke-width: 2px;" x="0" y="0" width="100" height="80" rx="10" ry="10"/><text class="djs-label" style="font-family: Arial,sans-serif; font-size: 12px; font-weight: normal; fill: black;" lineHeight="1.2"><tspan x="11.32" y="43.6">Schedule drop</tspan></text></g><rect class="djs-hit" style="fill: none; stroke: white; stroke-opacity: 0; stroke-width: 15px;" x="0" y="0" width="100" height="80"/><rect class="djs-outline" style="fill: none;" x="-6" y="-6" width="112" height="92"/></g></g></g></g></svg>